# xmcd
# 
# Track frame offsets:
#     150
#     14551
#     30677
#     44928
#     63229
#     81830
#     94281
#     108570
#     126211
#     140349
#     153250
#     179651
# 
# Disc length: 2903
# 
# Revision: 0
# Processed by: cddbd v1.5.2PL0 Copyright (c) Steve Scherf et al.
# Submitted via: fre:ac v1.0.31
# 
DISCID=ab0b550c
DTITLE=Listener - Return to struggleville
DYEAR=2009
DGENRE=Non-Music, Folk, World, and Country
TTITLE0=Death By Shotgun
TTITLE1=A Song From A Knife Salesman To His Wife On Their Wedding Day
TTITLE2=It's Time For Drastic Measures They're Note Taking You Seriously
TTITLE3=The Music That The Angels Do
TTITLE4=My Five Year Plan
TTITLE5=What Would You Do If I Am Not What I Am Supposed To Be, Because I'm Not
TTITLE6=I Have Nothing, But Attention, When I Scream
TTITLE7=Ozark Empire, Or A Snake Oil Salesman Comes To Your Town
TTITLE8=Your Life Will Never Dull Or Your Money Back
TTITLE9=When No One Else Will Be Your Friend, I Will Do The Job
TTITLE10=Office You Have The Wrong Man, I Am Not That Man
TTITLE11=Data track
EXTD=
EXTT0=
EXTT1=
EXTT2=
EXTT3=
EXTT4=
EXTT5=
EXTT6=
EXTT7=
EXTT8=
EXTT9=
EXTT10=
EXTT11=
PLAYORDER=
